<svg xmlns="http://www.w3.org/2000/svg" width="28" height="40" viewBox="0 0 28 40" fill="none">
  <path d="M19.9032 30.5729C19.7291 26.8577 20.6029 25.7592 21.8127 24.2388C22.3999 23.501 23.0653 22.6649 23.7704 21.3283C25.9582 17.1791 27.6861 13.9016 24.2039 7.2352C20.8574 0.827454 13.7386 1.10783 13.6658 1.11285L13.639 1.11411L13.6114 1.11285C13.3164 1.09988 6.41023 0.846704 3.07328 7.2352C-0.409721 13.9024 1.31902 17.1795 3.50682 21.3283L3.96547 22.0694L7.24174 18.4839L7.63971 19.053C7.64682 19.0631 8.35196 20.0691 9.22031 20.9375C10.0887 21.8066 11.0943 22.5113 11.1043 22.518L11.6425 22.8938L4.9196 29.7678L4.12449 28.9907L9.94344 23.0411C9.54253 22.731 8.97048 22.2611 8.43399 21.7242C7.91005 21.2002 7.45015 20.6428 7.13964 20.244L3.7939 23.9061L2.54222 21.8807C0.369062 17.7633 -1.66599 13.9053 2.08735 6.72089C5.65027 -0.0994778 13.1218 -0.0115968 13.6382 0.00179449C14.155 -0.0120153 21.6265 -0.100314 25.1895 6.72089C28.9415 13.9045 26.9073 17.7629 24.7534 21.8476C23.9997 23.2767 23.2695 24.1945 22.6832 24.9318C21.5458 26.3609 20.8595 27.2238 21.0143 30.521L19.9032 30.5729Z" fill="#00C454"/>
  <path d="M20.6083 32.6414H6.11182V29.2986H7.2233V31.5299H20.6083V32.6414Z" fill="#384A5C"/>
  <path d="M21.0399 11.1446C20.5511 11.6317 19.7598 11.6317 19.271 11.1429C18.7822 10.6558 18.7822 9.86527 19.2702 9.37733C19.7598 8.88938 20.5511 8.88939 21.0399 9.37817C21.5278 9.86612 21.5278 10.6566 21.0399 11.1446Z" fill="#00C454"/>
  <path d="M18.6189 12.0224L15.7444 14.897C15.8712 15.1878 15.8164 15.5377 15.5791 15.7758C15.2686 16.0863 14.7652 16.0855 14.4551 15.7758C14.1446 15.4653 14.1446 14.9627 14.4551 14.6517C14.6923 14.4141 15.0426 14.3601 15.3339 14.4865L18.2076 11.6111C16.6136 12.4694 13.3298 13.9583 10.3406 13.5704C10.3406 13.5704 9.83464 16.288 8.25488 18.3733C8.25488 18.3733 8.98137 19.4161 9.89784 20.3326C10.8139 21.2495 11.8571 21.9764 11.8571 21.9764C13.9428 20.3966 16.66 19.8907 16.66 19.8907C16.2713 16.9011 17.7606 13.6169 18.6189 12.0224Z" fill="#00C454"/>
  <path d="M15.6379 40.0002H12.1314L9.75195 37.1592H18.0119L15.6379 40.0002Z" fill="#00172F"/>
  <path d="M20.8529 33.8677H6.91211V35.8006H20.8529V33.8677Z" fill="#00172F"/>
</svg>