<svg xmlns="http://www.w3.org/2000/svg" width="35" height="40" viewBox="0 0 35 40" fill="none">
  <path d="M23.1445 37.2212C22.8276 37.2212 22.5708 36.9644 22.5708 36.6475C22.5708 30.7708 25.7066 27.101 26.7275 26.0619L20.3087 11.9848L13.8989 26.0619C14.9194 27.1006 18.0557 30.7708 18.0557 36.6475C18.0557 36.9644 17.7988 37.2212 17.4819 37.2212C17.1651 37.2212 16.9082 36.9644 16.9082 36.6475C16.9082 30.2904 12.8701 26.6594 12.8296 26.6235C12.6405 26.4569 12.5822 26.1854 12.6867 25.9557L19.7859 10.3642C19.8791 10.1596 20.0829 10.0283 20.3074 10.0283C20.5323 10.0283 20.736 10.1596 20.8293 10.3637L27.9389 25.9553C28.0438 26.1854 27.9855 26.4565 27.796 26.6235C27.7558 26.6594 23.7173 30.3145 23.7173 36.6475C23.7182 36.9644 23.4613 37.2212 23.1445 37.2212Z" fill="#00172F"/>
  <path d="M20.308 26.5129C20.0546 26.5129 19.8491 26.3074 19.8491 26.054V10.6015C19.8491 10.3481 20.0546 10.1426 20.308 10.1426C20.5614 10.1426 20.7669 10.3481 20.7669 10.6015V26.054C20.7669 26.3074 20.5614 26.5129 20.308 26.5129Z" fill="#00172F"/>
  <path d="M22.1188 26.054C22.1188 27.053 21.3077 27.8637 20.3087 27.8637C19.3098 27.8637 18.4995 27.053 18.4995 26.054C18.4995 25.0542 19.3098 24.2444 20.3087 24.2444C21.3077 24.2444 22.1188 25.0542 22.1188 26.054Z" fill="#00172F"/>
  <path d="M2.9926 18.6147C2.99087 18.6147 2.98914 18.6147 2.98742 18.6147C2.73444 18.6121 2.53155 18.4058 2.53371 18.1528C2.535 18.0215 2.59199 14.9142 5.31512 12.4665C7.87637 10.1643 11.857 9.25942 17.1492 9.78048C22.9559 10.3512 27.4524 9.40448 30.1536 7.04397C32.3936 5.0858 32.8029 2.73522 32.8473 1.50834C32.8564 1.25537 33.0597 1.0542 33.3226 1.06672C33.5756 1.07578 33.7738 1.28861 33.7643 1.54201C33.7146 2.91696 33.2574 5.54987 30.7575 7.73511C27.8608 10.2666 23.1243 11.2901 17.0598 10.6939C12.0461 10.2001 8.3059 11.0229 5.94323 13.1369C3.51754 15.3066 3.45192 18.1338 3.45192 18.1623C3.44804 18.4127 3.24298 18.6147 2.9926 18.6147Z" fill="#00172F"/>
  <path d="M34.829 0H30.5557V4.27335H34.829V0Z" fill="#5D5FEF"/>
  <path d="M5.98545 15.1628H0V21.15H5.98545V15.1628Z" fill="#00C454"/>
  <path d="M31.0265 17.6584C31.0058 17.6584 30.9851 17.6524 30.9665 17.6399L10.5499 3.53295C10.502 3.49971 10.4899 3.4341 10.5232 3.38661C10.5564 3.33869 10.6216 3.3266 10.6695 3.35984L31.0865 17.4663C31.1345 17.4996 31.1465 17.5652 31.1133 17.6127C31.093 17.6425 31.0598 17.6584 31.0265 17.6584Z" fill="#00172F"/>
  <path d="M32.1488 17.5531C32.1488 18.1726 31.6455 18.6742 31.0264 18.6742C30.4074 18.6742 29.9058 18.1726 29.9058 17.5531C29.9058 16.9336 30.4074 16.432 31.0264 16.432C31.6455 16.432 32.1488 16.9336 32.1488 17.5531Z" fill="#00172F"/>
  <path d="M12.0078 3.48892C12.0078 4.1084 11.5054 4.61046 10.8863 4.61046C10.2664 4.61046 9.76562 4.1084 9.76562 3.48892C9.76562 2.869 10.2664 2.36694 10.8863 2.36694C11.5054 2.36738 12.0078 2.86944 12.0078 3.48892Z" fill="#00172F"/>
  <path d="M27.8444 36.6556H12.811V40H27.8444V36.6556Z" fill="#00172F"/>
</svg>