<svg xmlns="http://www.w3.org/2000/svg" width="46" height="40" viewBox="0 0 46 40" fill="none">
  <path d="M18.429 6.26892H13.8066V9.71303H18.429V6.26892Z" fill="#B3D5F9"/>
  <path d="M18.429 30.3777H13.8066V33.8218H18.429V30.3777Z" fill="#B3D5F9"/>
  <path d="M32.2059 14.3353H27.5835V25.7553H32.2059V14.3353Z" fill="#B3D5F9"/>
  <path d="M36.7371 14.3353H32.1147V25.7553H36.7371V14.3353Z" fill="#B3D5F9"/>
  <path d="M27.5833 14.3353V25.8459H22.9609V21.2235H24.1392V18.9577H22.9609V14.3353H27.5833Z" fill="white"/>
  <path d="M22.961 25.8459V30.3776H18.4293H13.8069H9.18457V9.80359H13.8069H18.4293H22.961V14.3353V18.9577H21.8734V21.2235H22.961V25.8459Z" fill="white"/>
  <path d="M24.1392 18.9576H22.9609V21.2235H24.1392V18.9576Z" fill="#0C91DF"/>
  <path d="M23.0513 18.9576H21.873V21.2235H23.0513V18.9576Z" fill="#0C91DF"/>
  <path d="M22.961 31.4653C22.3265 31.4653 21.7827 30.9215 21.7827 30.2871V25.6647C21.7827 25.0303 22.3265 24.4865 22.961 24.4865C23.5954 24.4865 24.1392 25.0303 24.1392 25.6647V30.2871C24.1392 30.9215 23.5954 31.4653 22.961 31.4653Z" fill="#0C91DF"/>
  <path d="M22.961 15.423C22.3265 15.423 21.7827 14.8792 21.7827 14.2448V9.71304C21.7827 9.0786 22.3265 8.53479 22.961 8.53479C23.5954 8.53479 24.1392 9.0786 24.1392 9.71304V14.3354C24.1392 14.8792 23.5954 15.423 22.961 15.423Z" fill="#0C91DF"/>
  <path d="M9.18411 31.4653C8.54967 31.4653 8.00586 30.9214 8.00586 30.287V9.80361C8.00586 9.16917 8.54967 8.62537 9.18411 8.62537C9.81855 8.62537 10.3624 9.16917 10.3624 9.80361V30.3776C10.453 30.9214 9.90918 31.4653 9.18411 31.4653Z" fill="#0C91DF"/>
  <path d="M25.2268 10.8913H18.4292C17.7948 10.8913 17.251 10.3475 17.251 9.71304C17.251 9.0786 17.7948 8.53479 18.4292 8.53479H25.3174C25.9519 8.53479 26.4957 9.0786 26.4957 9.71304C26.4957 10.3475 25.9519 10.8913 25.2268 10.8913Z" fill="#0C91DF"/>
  <path d="M13.8067 10.8913H6.91848C6.28404 10.8913 5.74023 10.3475 5.74023 9.71304C5.74023 9.0786 6.28404 8.53479 6.91848 8.53479H13.8067C14.4411 8.53479 14.9849 9.0786 14.9849 9.71304C14.9849 10.3475 14.4411 10.8913 13.8067 10.8913Z" fill="#0C91DF"/>
  <path d="M25.2268 31.4653H18.4292C17.7948 31.4653 17.251 30.9215 17.251 30.287C17.251 29.6526 17.7948 29.1088 18.4292 29.1088H25.3174C25.9519 29.1088 26.4957 29.6526 26.4957 30.287C26.4957 30.9215 25.9519 31.4653 25.2268 31.4653Z" fill="#0C91DF"/>
  <path d="M13.8067 31.4653H6.91848C6.28404 31.4653 5.74023 30.9215 5.74023 30.287C5.74023 29.6526 6.28404 29.1088 6.91848 29.1088H13.8067C14.4411 29.1088 14.9849 29.6526 14.9849 30.287C14.9849 30.9215 14.4411 31.4653 13.8067 31.4653Z" fill="#0C91DF"/>
  <path d="M18.429 10.8912H13.8067C13.1722 10.8912 12.6284 10.3474 12.6284 9.71299V6.17825C12.6284 5.54381 13.1722 5 13.8067 5H18.429C19.0635 5 19.6073 5.54381 19.6073 6.17825V9.62236C19.6073 10.3474 19.0635 10.8912 18.429 10.8912ZM14.9849 8.53474H17.2508V7.3565H14.9849V8.53474Z" fill="#0C91DF"/>
  <path d="M18.429 35.0001H13.8067C13.1722 35.0001 12.6284 34.4563 12.6284 33.8218V30.3777C12.6284 29.7433 13.1722 29.1995 13.8067 29.1995H18.429C19.0635 29.1995 19.6073 29.7433 19.6073 30.3777V33.8218C19.6073 34.4563 19.0635 35.0001 18.429 35.0001ZM14.9849 32.7342H17.2508V31.556H14.9849V32.7342Z" fill="#0C91DF"/>
  <path d="M22.961 20.0453C22.3265 20.0453 21.7827 19.5015 21.7827 18.867V14.2447C21.7827 13.6102 22.3265 13.0664 22.961 13.0664H39.0033C39.6377 13.0664 40.1815 13.6102 40.1815 14.2447C40.1815 14.8791 39.6377 15.4229 39.0033 15.4229H24.1392V18.867C24.1392 19.5015 23.5954 20.0453 22.961 20.0453Z" fill="#0C91DF"/>
  <path d="M39.0033 26.9336H22.961C22.3265 26.9336 21.7827 26.3898 21.7827 25.7553V21.133C21.7827 20.4985 22.3265 19.9547 22.961 19.9547C23.5954 19.9547 24.1392 20.4985 24.1392 21.133V24.5771H39.0033C39.6377 24.5771 40.1815 25.1209 40.1815 25.7553C40.1815 26.3898 39.6377 26.9336 39.0033 26.9336Z" fill="#0C91DF"/>
  <path d="M27.583 26.9334C26.9486 26.9334 26.4048 26.3896 26.4048 25.7552V14.3352C26.4048 13.7008 26.9486 13.157 27.583 13.157C28.2175 13.157 28.7613 13.7008 28.7613 14.3352V25.8458C28.7613 26.3896 28.2175 26.9334 27.583 26.9334Z" fill="#0C91DF"/>
  <path d="M32.1148 26.9334C31.4803 26.9334 30.9365 26.3896 30.9365 25.7552V14.3352C30.9365 13.7008 31.4803 13.157 32.1148 13.157C32.7492 13.157 33.293 13.7008 33.293 14.3352V25.8458C33.293 26.3896 32.7492 26.9334 32.1148 26.9334Z" fill="#0C91DF"/>
  <path d="M36.7373 26.9334C36.1029 26.9334 35.5591 26.3896 35.5591 25.7552V14.3352C35.5591 13.7008 36.1029 13.157 36.7373 13.157C37.3718 13.157 37.9156 13.7008 37.9156 14.3352V25.8458C37.9156 26.3896 37.3718 26.9334 36.7373 26.9334Z" fill="#0C91DF"/>
</svg>