<svg xmlns="http://www.w3.org/2000/svg" width="28" height="28" viewBox="0 0 28 28" fill="none">
  <path d="M24.9886 8.47906H22.5929V6.78203C23.5022 6.45953 24.1555 5.59092 24.1555 4.57291V0.666748H19.4678V4.57291C19.4678 5.59143 20.121 6.45953 21.0304 6.78203V8.47906H19.4121C19.0685 6.08756 17.1721 4.19115 14.7806 3.84752V2.2288H13.218V3.84752C10.8265 4.19115 8.93013 6.08756 8.5865 8.47906H6.96777V6.78203C7.87708 6.45953 8.53034 5.59092 8.53034 4.57291V0.666748H3.84316V4.57291C3.84316 5.59143 4.49642 6.45953 5.40572 6.78203V8.47906H3.0101C1.718 8.47906 0.666504 9.53056 0.666504 10.8227V20.4582L0.822607 20.6664C2.41505 22.7895 5.63034 23.2351 7.74983 21.3464C8.77454 22.2598 10.2011 22.7225 11.656 22.4742V25.7709H8.53086V27.3334C14.8986 27.3334 12.1336 27.3334 19.4683 27.3334V25.7709H16.3432V22.4736C17.7991 22.7225 19.2256 22.2588 20.2493 21.3459C22.3652 23.232 25.582 22.792 27.1766 20.6658L27.3327 20.4577V10.8227C27.3327 9.53056 26.2812 8.47906 24.9886 8.47906ZM21.0304 2.2288H22.5929V4.57239C22.5929 5.00309 22.2426 5.35342 21.8119 5.35342C21.3812 5.35342 21.0304 5.00309 21.0304 4.57239V2.2288ZM5.40572 2.2288H6.96829V4.57239C6.96829 5.00309 6.61796 5.35342 6.18726 5.35342C5.75657 5.35342 5.40624 5.00309 5.40624 4.57239L5.40572 2.2288ZM13.9991 5.35393C15.8857 5.35393 17.4637 6.69806 17.8269 8.47906H10.1717C10.5344 6.69806 12.113 5.35393 13.9991 5.35393ZM3.00958 10.0416H24.9886C25.4192 10.0416 25.7696 10.392 25.7696 10.8227V11.6037H2.22856V10.8227C2.22856 10.392 2.57888 10.0416 3.00958 10.0416ZM14.7806 25.7703H13.218V21.909C13.4957 21.7488 13.7585 21.5607 13.9991 21.3464C14.2397 21.5612 14.5024 21.7488 14.7801 21.909L14.7806 25.7703ZM20.8743 19.7287L20.2493 18.8957L19.6244 19.7292C18.3771 21.3923 15.8733 21.3943 14.6245 19.7292L13.9996 18.8962L13.3747 19.7297C12.1274 21.3928 9.62357 21.3948 8.37475 19.7297L7.74983 18.8967L7.12491 19.7303C5.90546 21.3562 3.52168 21.3665 2.22907 19.9209V13.1662H25.7706V19.9193C24.4765 21.3665 22.0927 21.3536 20.8743 19.7287Z" fill="#5B365A"/>
</svg>