<svg xmlns="http://www.w3.org/2000/svg" width="41" height="40" viewBox="0 0 41 40" fill="none">
  <path d="M35.329 4.0522L4.72258 4C4.36129 4 4.05161 4.31321 4.05161 4.67863L4 35.2692C4 35.6346 4.30968 35.9478 4.67097 35.9478L35.2774 36C35.6387 36 35.9484 35.6868 35.9484 35.3214L36 4.73083C36 4.36542 35.6903 4.0522 35.329 4.0522ZM34.6581 5.40946V9.37684L5.39355 9.32463V5.35726L34.6581 5.40946ZM5.34194 34.5905L5.39355 10.6819L34.7097 10.7341L34.6581 34.6949L5.34194 34.6427V34.5905Z" fill="#00172F"/>
  <path d="M22.6311 8H31.3689C31.7087 8 32 7.76923 32 7.5C32 7.23077 31.7087 7 31.3689 7H22.6311C22.2913 7 22 7.23077 22 7.5C22 7.76923 22.2913 8 22.6311 8Z" fill="black"/>
  <path d="M7.76471 8H9.23529C9.64706 8 10 7.76923 10 7.5C10 7.23077 9.64706 7 9.23529 7H7.76471C7.35294 7 7 7.23077 7 7.5C7 7.76923 7.35294 8 7.76471 8Z" fill="black"/>
  <path d="M12.8235 8H14.2353C14.6471 8 15 7.76923 15 7.5C15 7.23077 14.6471 7 14.2353 7H12.7647C12.3529 7 12 7.23077 12 7.5C12.0588 7.76923 12.4118 8 12.8235 8Z" fill="black"/>
  <path d="M31.3189 12.0513L9.68109 12C9.31435 12 9 12.3077 9 12.6667V15.2821C9 15.641 9.31435 15.9487 9.68109 15.9487L31.3189 16C31.6856 16 32 15.6923 32 15.3333V12.7179C32 12.359 31.6856 12.0513 31.3189 12.0513ZM30.5854 14.6667L10.3622 14.6154V13.3333L30.6378 13.3846L30.5854 14.6667Z" fill="#0072EC"/>
  <path d="M30 22.037C30 21.5185 29.6891 21.0741 29.3264 21.0741L10.6736 21C10.3109 21 10 21.4444 10 21.963C10 22.4815 10.3109 22.9259 10.6736 22.9259L29.3782 23C29.6891 23 30 22.5556 30 22.037Z" fill="#00C454"/>
  <path d="M31.3134 19.037L9.68092 19C9.31427 19 9 19.2222 9 19.4815C9 19.7407 9.31427 19.963 9.68092 19.963L31.3134 20C31.68 20 31.9943 19.7778 31.9943 19.5185C32.0467 19.2222 31.7324 19.037 31.3134 19.037Z" fill="#00C454"/>
  <path d="M13.6866 25C13.3169 25 13 25.2308 13 25.5C13 25.7692 13.3169 26 13.6866 26H27.3134C27.6831 26 28 25.7692 28 25.5C28 25.2308 27.6831 25 27.3134 25H13.6866Z" fill="black"/>
  <path d="M31.3189 28.037L9.68109 28C9.31435 28 9 28.2222 9 28.4815C9 28.7407 9.31435 28.963 9.68109 28.963L31.3189 29C31.6856 29 32 28.7778 32 28.5185C32 28.2593 31.6856 28.037 31.3189 28.037Z" fill="#00C454"/>
  <path d="M29.3684 31.0741L11.6842 31C11.3158 31 11 31.4444 11 31.963C11 32.4815 11.3158 32.9259 11.6842 32.9259L29.3158 33C29.6842 33 30 32.5556 30 32.037C30 31.5185 29.7368 31.0741 29.3684 31.0741Z" fill="#2B2B2B"/>
</svg>